<?xml version="1.0" standalone="no"?>
<!DOCTYPE svg PUBLIC "-//W3C//DTD SVG 20010904//EN"
 "http://www.w3.org/TR/2001/REC-SVG-20010904/DTD/svg10.dtd">
<svg version="1.0" xmlns="http://www.w3.org/2000/svg"
 width="300.000000pt" height="300.000000pt" viewBox="0 0 300.000000 300.000000"
 preserveAspectRatio="xMidYMid meet">
<metadata>
Created by potrace 1.10, written by Peter Selinger 2001-2011
</metadata>
<g transform="translate(0.000000,300.000000) scale(0.100000,-0.100000)"
fill="none" stroke="none">
<path d="M1425 2419 c-323 -41 -550 -360 -484 -681 18 -90 84 -212 153 -282
71 -72 128 -108 225 -142 375 -130 772 172 748 571 -8 143 -60 261 -158 364
-123 129 -306 193 -484 170z m220 -45 c152 -48 268 -143 334 -275 49 -97 65
-170 59 -274 -12 -205 -128 -375 -319 -465 -348 -162 -759 105 -759 495 0 354
354 622 685 519z" fill="currentColor" />
<path d="M1422 2349 c-38 -5 -91 -22 -135 -43 -182 -87 -287 -252 -287 -450 0
-137 42 -243 134 -343 309 -334 866 -114 866 342 0 140 -46 250 -145 351 -112
114 -264 164 -433 143z m226 -84 c146 -52 263 -198 282 -350 26 -209 -84 -393
-282 -471 -75 -30 -193 -34 -274 -9 -56 16 -156 78 -193 119 -23 24 -23 28 -9
42 14 15 19 12 56 -28 23 -24 67 -58 99 -74 54 -27 66 -29 168 -29 100 0 116
3 171 28 114 53 201 168 224 295 21 121 -15 244 -100 336 -155 168 -437 166
-583 -5 -24 -27 -37 -35 -47 -29 -47 29 114 159 236 190 52 13 199 4 252 -15z
m15 -85 c276 -136 270 -527 -11 -658 -50 -24 -69 -27 -157 -27 -115 0 -157 16
-246 92 -28 24 -56 43 -62 43 -15 0 -47 -31 -47 -47 0 -27 -21 -11 -50 40 -33
56 -57 124 -47 133 3 3 15 0 27 -6 18 -9 25 -8 41 6 21 19 25 49 8 59 -6 4 -7
14 -4 24 17 40 53 196 48 208 -3 7 0 13 6 13 7 0 33 19 59 43 98 90 169 118
287 114 67 -3 91 -9 148 -37z m-533 -92 c0 -12 -3 -18 -6 -15 -4 3 -15 2 -25
-4 -22 -11 -23 -6 -9 22 14 26 40 24 40 -3z m-3 -96 c-9 -22 -19 -63 -23 -91
-5 -42 -10 -51 -26 -51 -18 0 -19 5 -13 53 4 28 16 76 27 106 18 48 22 52 35
38 14 -14 14 -20 0 -55z m-19 -196 c4 -17 -12 -35 -29 -36 -9 0 -19 42 -13 52
10 15 39 4 42 -16z" fill="currentColor"/>
<path d="M1635 2087 c-179 -109 -226 -142 -247 -175 -97 -147 -138 -220 -138
-245 0 -22 44 -57 71 -57 30 0 244 130 277 168 13 15 42 59 65 97 22 39 46 77
53 85 6 8 17 32 25 52 12 35 11 39 -11 63 -25 27 -62 32 -95 12z m73 -19 c23
-23 16 -40 -111 -241 -26 -40 -63 -72 -112 -97 -6 -3 -45 -27 -88 -54 -77 -48
-101 -52 -114 -20 -6 17 12 53 93 182 54 86 86 112 269 218 47 28 47 28 63 12z" fill="currentColor"/>
<path d="M566 1130 c-63 -19 -113 -95 -100 -154 3 -17 15 -43 26 -59 37 -52
55 -55 286 -55 207 0 213 1 230 22 28 36 57 38 87 6 24 -25 35 -28 85 -29 45
0 62 4 75 20 23 24 47 24 70 -1 24 -27 57 -25 83 3 28 30 28 36 -9 108 -17 34
-29 62 -27 64 2 1 20 -8 41 -21 36 -24 37 -26 37 -83 0 -43 5 -62 18 -74 48
-43 101 2 103 87 l1 51 9 -59 c12 -85 26 -96 118 -96 53 0 83 5 99 16 26 18
29 56 6 74 -23 20 -15 75 11 75 17 0 20 -8 23 -60 5 -93 53 -132 100 -82 16
17 22 36 22 73 0 80 15 88 43 24 14 -30 27 -63 30 -72 3 -9 18 -25 33 -34 25
-17 28 -17 55 -1 27 15 31 15 58 -1 29 -16 31 -16 59 5 28 20 29 20 52 3 35
-26 131 -26 155 0 17 19 18 19 43 0 33 -26 64 -25 90 3 19 20 22 35 22 106 0
79 -10 117 -34 133 -19 13 -49 9 -68 -9 -17 -16 -21 -16 -46 -1 -40 24 -206
28 -228 6 -15 -14 -19 -14 -45 1 -27 15 -31 15 -58 0 -26 -15 -30 -15 -44 -1
-14 13 -62 16 -330 18 -331 2 -353 0 -371 -43 -10 -21 -10 -21 -37 8 -35 37
-64 37 -99 -1 -31 -33 -40 -37 -40 -17 0 22 -34 47 -62 47 -15 0 -36 -11 -49
-25 -30 -31 -34 -31 -71 0 -24 21 -40 25 -89 25 -81 0 -99 -18 -99 -100 0 -53
-2 -60 -20 -60 -12 0 -20 7 -21 18 -1 9 -2 36 -4 60 -3 60 -26 82 -84 79 -25
-1 -59 1 -76 5 -16 4 -43 3 -59 -2z m103 -45 c12 -12 13 -19 4 -33 -6 -9 -17
-15 -25 -13 -44 13 -65 11 -82 -8 -39 -43 17 -113 66 -82 17 11 23 10 37 -3
35 -35 -34 -75 -95 -56 -97 32 -111 159 -22 204 38 19 93 15 117 -9z m79 -68
l3 -89 47 4 c43 3 47 1 50 -20 3 -22 2 -23 -75 -20 l-78 3 -3 99 c-3 102 3
119 38 113 12 -2 16 -21 18 -90z m156 87 c13 -5 16 -25 16 -111 l0 -104 -27 3
-28 3 -3 99 c-2 73 1 102 10 108 16 9 13 9 32 2z m116 -46 l34 -47 31 44 c16
25 38 47 48 51 35 11 42 -9 39 -116 l-3 -101 -27 3 c-26 3 -27 5 -24 61 1 31
0 57 -2 57 -2 0 -13 -16 -25 -35 -26 -45 -44 -44 -76 3 l-25 37 2 -60 c3 -59
2 -60 -24 -63 l-28 -3 0 104 c0 57 3 107 7 111 15 14 39 -1 73 -46z m292 35
c8 -10 32 -56 54 -102 36 -79 37 -84 20 -96 -22 -17 -42 -10 -49 16 -7 27 -83
28 -92 0 -8 -25 -29 -33 -50 -17 -16 11 -15 18 19 92 59 128 70 139 98 107z
m296 -11 c3 -19 -1 -22 -35 -22 l-38 0 0 -82 0 -83 -29 0 -29 0 2 83 2 82 -40
0 c-33 0 -41 4 -41 18 0 10 2 21 4 23 2 2 49 4 103 3 93 0 98 -1 101 -22z
m182 8 c5 -8 9 -8 12 2 4 10 29 13 97 12 51 -1 95 -4 98 -7 3 -3 16 -1 30 6
29 13 40 2 49 -56 9 -53 20 -54 33 -3 22 87 61 83 85 -9 l12 -48 17 61 c17 62
22 67 51 56 22 -8 20 -25 -13 -124 -25 -75 -31 -85 -54 -88 -22 -3 -27 2 -36
35 -6 21 -11 44 -11 51 0 27 -16 9 -30 -36 -12 -39 -19 -47 -39 -47 -22 0 -28
10 -53 85 l-28 86 -40 -4 -40 -4 0 -84 0 -84 -31 0 -30 0 3 84 3 84 -42 4
c-24 2 -43 0 -43 -4 0 -5 -27 -8 -60 -8 -47 0 -60 -3 -60 -15 0 -11 12 -15 45
-15 41 0 45 -2 45 -25 0 -23 -4 -25 -45 -25 -34 0 -45 -4 -45 -16 0 -12 11
-15 56 -13 57 3 78 -9 67 -38 -4 -9 -28 -13 -89 -13 l-84 0 0 104 c0 60 4 106
10 108 24 8 154 -2 160 -12z m554 14 c13 -5 16 -25 16 -110 l0 -104 -30 0 -30
0 0 104 c0 74 4 106 13 109 6 3 13 6 14 6 1 1 8 -2 17 -5z m75 -4 c10 -5 33
-32 51 -60 18 -27 34 -50 37 -50 2 0 3 23 2 50 -3 56 9 75 40 65 21 -6 22 -12
19 -108 -3 -101 -3 -102 -29 -105 -22 -3 -32 6 -65 54 l-39 57 -3 -57 c-3 -55
-4 -57 -29 -54 l-26 3 -1 103 c-1 90 2 106 22 111 2 1 11 -3 21 -9z m-1778
-105 c-1 -15 -51 -17 -51 -2 0 8 3 16 6 20 8 8 46 -7 45 -18z" fill="currentColor"/>
</g>
</svg>
